<?xml version="1.0" encoding="UTF-8" standalone="no"?>
<!-- Uploaded to: SVG Repo, www.svgrepo.com, Generator: SVG Repo Mixer Tools -->

<svg
   width="800px"
   height="800px"
   viewBox="0 0 36 36"
   aria-hidden="true"
   role="img"
   class="iconify iconify--twemoji"
   preserveAspectRatio="xMidYMid meet"
   version="1.1"
   id="svg3"
   sodipodi:docname="booking.svg"
   inkscape:version="1.3.2 (091e20e, 2023-11-25, custom)"
   xmlns:inkscape="http://www.inkscape.org/namespaces/inkscape"
   xmlns:sodipodi="http://sodipodi.sourceforge.net/DTD/sodipodi-0.dtd"
   xmlns="http://www.w3.org/2000/svg"
   xmlns:svg="http://www.w3.org/2000/svg">
  <defs
     id="defs3" />
  <sodipodi:namedview
     id="namedview3"
     pagecolor="#ffffff"
     bordercolor="#000000"
     borderopacity="0.25"
     inkscape:showpageshadow="2"
     inkscape:pageopacity="0.0"
     inkscape:pagecheckerboard="0"
     inkscape:deskcolor="#d1d1d1"
     inkscape:zoom="0.79125"
     inkscape:cx="400"
     inkscape:cy="398.73618"
     inkscape:window-width="1600"
     inkscape:window-height="829"
     inkscape:window-x="-8"
     inkscape:window-y="-8"
     inkscape:window-maximized="1"
     inkscape:current-layer="svg3" />
  <path
     fill="#77B255"
     d="M36.042 32a4 4 0 0 1-4 4h-28a4 4 0 0 1-4-4V4a4 4 0 0 1 4-4h28a4 4 0 0 1 4 4v28z"
     id="path1"
     style="fill:#b3b3b3" />
  <g
     id="g8"
     transform="matrix(0.56148443,0,0,0.51451422,-0.20835515,1.5634834)">
    <path
       fill="#f9ebb2"
       d="M 56,62 H 10 C 7.791,62 6,60.209 6,58 6,55.791 7.791,54 10,54 h 46 z"
       id="path1-8" />
    <g
       id="g3">
      <path
         fill="#45aab8"
         d="M 6,4 V 53.537 C 7.062,52.584 8.461,52 10,52 h 2 V 2 H 8 C 6.896,2 6,2.896 6,4 Z"
         id="path2" />
      <path
         fill="#45aab8"
         d="M 56,2 H 14 v 50 h 42 2 V 50 4 C 58,2.896 57.104,2 56,2 Z"
         id="path3" />
    </g>
    <g
       id="g7">
      <path
         fill="#394240"
         d="M 60,52 V 4 C 60,1.789 58.211,0 56,0 H 8 C 5.789,0 4,1.789 4,4 v 54 c 0,3.313 2.687,6 6,6 h 49 c 0.553,0 1,-0.447 1,-1 0,-0.553 -0.447,-1 -1,-1 h -1 v -8 c 1.104,0 2,-0.896 2,-2 z M 6,4 C 6,2.896 6.896,2 8,2 h 4 V 52 H 10 C 8.461,52 7.062,52.584 6,53.537 Z M 56,62 H 10 C 7.791,62 6,60.209 6,58 6,55.791 7.791,54 10,54 H 56 Z M 56,52 H 14 V 2 h 42 c 1.104,0 2,0.896 2,2 v 46 2 z"
         id="path4" />
      <path
         fill="#394240"
         d="M 43,26 H 23 c -0.553,0 -1,0.447 -1,1 0,0.553 0.447,1 1,1 h 20 c 0.553,0 1,-0.447 1,-1 0,-0.553 -0.447,-1 -1,-1 z"
         id="path5" />
      <path
         fill="#394240"
         d="M 49,20 H 23 c -0.553,0 -1,0.447 -1,1 0,0.553 0.447,1 1,1 h 26 c 0.553,0 1,-0.447 1,-1 0,-0.553 -0.447,-1 -1,-1 z"
         id="path6" />
      <path
         fill="#394240"
         d="m 23,16 h 12 c 0.553,0 1,-0.447 1,-1 0,-0.553 -0.447,-1 -1,-1 H 23 c -0.553,0 -1,0.447 -1,1 0,0.553 0.447,1 1,1 z"
         id="path7" />
    </g>
    <path
       opacity="0.2"
       fill="#231f20"
       d="M 6,4 V 53.537 C 7.062,52.584 8.461,52 10,52 h 2 V 2 H 8 C 6.896,2 6,2.896 6,4 Z"
       id="path8" />
  </g>
</svg>
